<?xml version="1.0" standalone="no"?>
<!DOCTYPE svg PUBLIC "-//W3C//DTD SVG 20010904//EN"
 "http://www.w3.org/TR/2001/REC-SVG-20010904/DTD/svg10.dtd">
<svg version="1.0" xmlns="http://www.w3.org/2000/svg"
 width="2631.000000pt" height="1332.000000pt" viewBox="0 0 2631.000000 1332.000000"
 preserveAspectRatio="xMidYMid meet">

<g transform="translate(0.000000,1332.000000) scale(0.100000,-0.100000)"
fill="#000000" stroke="none">
<path d="M4205 13299 c-1211 -72 -2195 -396 -2905 -959 -134 -105 -404 -377
-500 -500 -334 -432 -534 -921 -602 -1470 -20 -160 -17 -633 5 -790 47 -333
124 -588 257 -849 340 -667 995 -1149 2032 -1492 367 -122 760 -223 1498 -389
888 -199 1210 -294 1503 -442 334 -170 487 -372 487 -643 -1 -330 -204 -559
-618 -695 -241 -79 -521 -117 -922 -127 -1136 -26 -2408 327 -3400 943 -47 29
-88 50 -91 46 -11 -12 -939 -2098 -939 -2111 0 -6 44 -40 97 -75 802 -519
2024 -892 3308 -1011 323 -30 518 -38 880 -38 381 -1 588 10 900 44 1446 158
2549 726 3150 1624 353 527 518 1157 477 1812 -26 403 -102 711 -251 1018
-329 675 -957 1152 -1971 1497 -391 133 -730 220 -1555 403 -906 200 -1216
287 -1492 420 -164 79 -262 146 -352 241 -114 120 -161 236 -161 399 0 117 29
235 82 339 54 105 195 249 313 318 287 170 687 251 1245 250 860 0 1706 -220
2630 -682 142 -71 205 -98 210 -90 24 39 881 2124 877 2133 -7 17 -392 213
-562 285 -787 336 -1687 535 -2669 592 -205 12 -754 11 -961 -1z"/>
<path d="M12895 13299 c-1365 -80 -2458 -492 -3160 -1194 -407 -405 -681 -910
-795 -1458 -113 -543 -77 -1167 94 -1642 85 -236 248 -517 414 -715 257 -307
655 -596 1112 -805 512 -236 994 -380 2105 -630 724 -163 1023 -242 1280 -340
483 -183 710 -403 732 -708 7 -107 -16 -226 -64 -327 -47 -98 -173 -226 -288
-294 -465 -271 -1461 -324 -2445 -130 -764 151 -1546 452 -2136 824 -53 33
-98 60 -99 58 -1 -2 -215 -480 -475 -1062 -446 -1001 -471 -1060 -454 -1074
11 -7 75 -48 144 -91 1281 -798 3451 -1190 5230 -945 939 129 1716 435 2323
917 122 96 377 349 471 467 178 223 363 543 450 780 126 344 174 601 183 976
12 525 -63 906 -256 1299 -180 366 -441 664 -814 928 -303 215 -736 422 -1207
578 -386 127 -677 202 -1499 384 -627 139 -835 189 -1046 252 -567 169 -857
368 -941 648 -25 84 -23 244 5 348 86 324 376 544 861 651 348 77 846 92 1300
40 684 -78 1422 -312 2133 -676 86 -45 159 -79 160 -77 2 2 203 485 446 1073
345 832 440 1071 429 1077 -54 34 -300 161 -419 215 -812 372 -1767 594 -2813
654 -205 12 -754 11 -961 -1z"/>
<path d="M18110 10540 l0 -2571 78 64 c431 356 1491 840 2592 1186 l185 58 3
802 2 801 2575 0 2575 0 0 1115 0 1115 -4005 0 -4005 0 0 -2570z"/>
<path d="M26245 9038 c-22 -5 -148 -36 -280 -69 -477 -116 -927 -246 -1925
-556 -327 -101 -737 -227 -911 -278 -856 -255 -2415 -781 -3064 -1033 -709
-276 -1348 -581 -1820 -868 l-130 -79 -3 -1628 -2 -1627 4100 0 4100 0 0 1115
0 1115 -2670 0 -2670 0 2 807 3 807 160 53 c88 28 166 52 173 52 9 1 12 -27
12 -109 0 -196 -44 -531 -105 -806 -15 -64 -25 -118 -22 -120 2 -2 24 11 48
29 288 219 1130 811 1639 1152 1269 852 2266 1455 3220 1949 113 58 201 105
195 105 -5 -1 -28 -6 -50 -11z"/>
<path d="M485 1424 c-153 -34 -269 -114 -322 -223 -24 -47 -27 -67 -27 -141 1
-72 5 -96 28 -146 54 -119 136 -178 379 -274 87 -35 180 -77 205 -94 122 -83
120 -244 -3 -306 -46 -23 -61 -25 -180 -25 -124 1 -135 2 -239 38 -59 21 -109
37 -111 35 -7 -8 -75 -200 -75 -212 0 -12 45 -24 220 -58 104 -20 349 -14 442
10 148 40 229 98 277 201 23 50 26 68 26 171 0 104 -3 121 -27 172 -15 32 -39
74 -54 93 -38 50 -159 128 -256 165 -46 17 -126 47 -178 67 -71 27 -106 47
-137 78 -39 38 -43 47 -43 91 0 92 59 145 184 165 80 13 196 -3 296 -42 41
-16 77 -25 81 -21 12 14 82 213 76 218 -2 3 -47 14 -98 25 -129 28 -369 34
-464 13z"/>
<path d="M5490 1429 c-128 -25 -249 -91 -307 -167 -99 -131 -78 -346 47 -463
59 -56 132 -95 283 -154 218 -84 283 -129 306 -211 14 -50 -3 -121 -36 -156
-46 -48 -104 -63 -238 -63 -112 1 -127 3 -229 38 -60 21 -111 35 -114 32 -13
-13 -80 -210 -74 -217 11 -10 189 -46 297 -58 162 -19 360 3 469 53 151 69
227 227 197 407 -31 191 -142 290 -441 399 -227 82 -289 143 -249 248 30 79
114 118 254 117 76 -1 106 -6 195 -37 57 -20 105 -35 107 -34 1 2 20 51 41
110 l40 108 -26 10 c-101 39 -405 61 -522 38z"/>
<path d="M7305 1424 c-129 -28 -242 -92 -295 -169 -78 -114 -77 -278 3 -398
47 -71 143 -136 287 -193 216 -85 242 -98 291 -142 81 -72 90 -168 23 -242
-76 -84 -268 -94 -468 -26 -59 21 -110 36 -112 33 -11 -11 -81 -213 -75 -219
9 -10 191 -45 301 -59 165 -20 364 6 477 61 76 38 145 111 170 183 13 38 18
80 17 152 0 126 -24 191 -96 270 -66 73 -152 122 -322 185 -167 61 -204 80
-244 120 -42 41 -49 86 -24 142 35 79 108 113 242 112 88 -1 174 -19 256 -54
26 -11 49 -19 51 -16 7 7 84 218 81 221 -8 6 -151 36 -213 45 -100 14 -268 11
-350 -6z"/>
<path d="M8665 1424 c-164 -32 -308 -140 -378 -284 -64 -131 -80 -210 -81
-410 -1 -111 4 -197 12 -235 58 -266 180 -405 409 -467 103 -27 314 -30 417
-5 210 52 354 197 410 412 61 233 35 555 -57 730 -71 133 -209 229 -370 260
-96 18 -268 18 -362 -1z m271 -197 c193 -41 273 -188 273 -502 0 -348 -101
-501 -341 -513 -212 -11 -328 81 -373 295 -19 90 -19 336 0 426 37 174 121
268 268 296 62 13 105 12 173 -2z"/>
<path d="M25545 1424 c-212 -47 -359 -184 -424 -397 -68 -221 -44 -560 52
-742 43 -82 137 -174 217 -213 108 -53 178 -66 335 -66 166 1 241 16 368 76
l87 41 -2 326 -3 326 -267 3 -268 2 0 -105 0 -105 150 0 151 0 -3 -157 -3
-158 -65 -23 c-55 -19 -80 -22 -165 -18 -116 4 -157 19 -222 78 -92 86 -117
176 -118 423 0 244 22 330 111 425 64 68 129 93 249 93 89 0 125 -9 236 -57
l36 -15 41 112 c22 61 39 113 38 115 -2 2 -46 12 -97 23 -127 28 -339 34 -434
13z"/>
<path d="M1602 741 c-150 -368 -275 -677 -278 -685 -6 -15 9 -16 137 -14 l144
3 65 183 64 182 245 -2 244 -3 61 -180 61 -180 149 -3 c117 -2 147 0 144 10
-3 7 -119 316 -259 686 l-253 672 -126 0 -126 0 -272 -669z m468 123 c44 -131
80 -242 80 -246 0 -5 -77 -8 -171 -8 -133 0 -170 3 -167 13 3 6 43 119 89 249
46 130 85 235 87 234 1 -2 38 -111 82 -242z"/>
<path d="M2900 725 l0 -685 420 0 420 0 0 110 0 110 -285 0 -285 0 0 575 0
575 -135 0 -135 0 0 -685z"/>
<path d="M3950 725 l0 -685 415 0 415 0 0 105 0 105 -280 0 -280 0 0 200 0
200 250 0 250 0 0 105 0 105 -250 0 -250 0 0 175 0 175 275 0 275 0 0 100 0
100 -410 0 -410 0 0 -685z"/>
<path d="M9810 725 l0 -685 420 0 420 0 0 110 0 110 -285 0 -285 0 0 575 0
575 -135 0 -135 0 0 -685z"/>
<path d="M10596 1343 c13 -38 129 -345 257 -683 l232 -615 125 0 124 0 243
665 c134 366 245 673 249 683 5 16 -6 17 -138 17 l-143 0 -159 -503 c-88 -276
-162 -508 -166 -515 -3 -7 -84 219 -179 503 l-174 515 -148 0 -149 0 26 -67z"/>
<path d="M12090 725 l0 -685 418 2 417 3 3 103 3 102 -286 0 -285 0 0 200 0
200 250 0 250 0 0 105 0 105 -250 0 -250 0 0 175 0 175 275 0 275 0 0 100 0
100 -410 0 -410 0 0 -685z"/>
<path d="M13900 725 l0 -685 415 0 415 0 0 105 0 105 -285 0 -285 0 2 198 3
197 253 3 253 2 -3 103 -3 102 -253 3 -252 2 2 173 3 172 273 3 272 2 0 100 0
100 -405 0 -405 0 0 -685z"/>
<path d="M14995 1393 c4 -10 114 -301 245 -648 131 -347 245 -647 253 -668
l16 -38 122 3 122 3 249 680 c136 374 248 681 248 683 0 1 -64 2 -142 2 l-143
0 -134 -423 c-74 -232 -149 -464 -166 -516 l-31 -94 -174 516 -174 517 -149 0
c-138 0 -149 -1 -142 -17z"/>
<path d="M16510 725 l0 -685 415 0 415 0 0 105 0 105 -280 0 -280 0 0 200 0
200 250 0 250 0 0 105 0 105 -250 0 -250 0 0 175 0 175 275 0 275 0 0 100 0
100 -410 0 -410 0 0 -685z"/>
<path d="M17742 728 l3 -683 133 -3 132 -3 0 286 0 286 32 -3 c30 -3 49 -26
238 -283 l205 -280 163 -3 c89 -1 162 0 162 3 0 3 -95 131 -210 286 -116 154
-208 284 -205 288 2 5 20 11 39 14 49 8 135 52 174 90 73 69 112 172 112 297
0 159 -62 274 -182 336 -96 49 -138 54 -480 54 l-318 0 2 -682z m588 472 c43
-12 93 -62 109 -109 33 -101 -12 -222 -96 -257 -22 -10 -78 -14 -183 -14
l-150 0 0 195 0 195 143 0 c78 0 158 -5 177 -10z"/>
<path d="M18949 1393 c5 -10 116 -182 245 -383 l236 -365 0 -302 0 -303 130 0
130 0 0 307 0 306 245 374 c135 206 245 376 245 379 0 2 -64 4 -143 4 l-142 0
-159 -255 c-88 -140 -162 -255 -165 -255 -4 0 -78 115 -166 255 l-160 254
-153 1 c-143 0 -152 -1 -143 -17z"/>
<path d="M20260 1310 l0 -100 190 0 190 0 0 -585 0 -585 135 0 135 0 0 585 0
585 190 0 190 0 0 100 0 100 -515 0 -515 0 0 -100z"/>
<path d="M21530 725 l0 -685 135 0 135 0 0 305 0 305 265 0 265 0 2 -302 3
-303 133 -3 132 -3 0 686 0 685 -135 0 -135 0 0 -275 0 -275 -265 0 -265 0 0
275 0 275 -135 0 -135 0 0 -685z"/>
<path d="M22972 728 l3 -683 133 -3 132 -3 0 686 0 685 -135 0 -135 0 2 -682z"/>
<path d="M23612 728 l3 -683 127 -3 128 -3 2 523 3 522 240 -520 240 -519 203
-3 202 -2 0 685 0 685 -135 0 -135 0 -2 -514 -3 -514 -235 514 -235 514 -203
0 -202 0 2 -682z"/>
</g>
</svg>
